<svg width="40" height="40" viewBox="0 0 40 40" fill="none" xmlns="http://www.w3.org/2000/svg">
<g clip-path="url(#clip0_167_113)">
<path d="M33.8617 7.28301C31.2684 6.09266 28.5316 5.2438 25.7198 4.7577C25.6943 4.75295 25.6679 4.75637 25.6444 4.76748C25.6209 4.77858 25.6015 4.79681 25.589 4.81957C25.2373 5.44497 24.8479 6.26075 24.5752 6.902C21.5007 6.44168 18.442 6.44168 15.4305 6.902C15.1577 6.24653 14.7541 5.44497 14.4009 4.81957C14.3879 4.79729 14.3684 4.77947 14.3451 4.76843C14.3217 4.75739 14.2956 4.75365 14.2701 4.7577C11.4132 5.24973 8.6793 6.11161 6.1282 7.28301C6.106 7.29243 6.08728 7.30851 6.07461 7.32903C0.888982 15.0763 -0.531643 22.6332 0.165232 30.0963C0.168357 30.1328 0.188904 30.1677 0.217263 30.1899C3.63859 32.7025 6.95281 34.2278 10.2054 35.2389C10.2307 35.2464 10.2577 35.2461 10.2828 35.2379C10.3078 35.2296 10.3298 35.2139 10.3457 35.1929C11.1151 34.1422 11.8009 33.0343 12.389 31.8692C12.4237 31.801 12.3905 31.72 12.3196 31.693C11.2317 31.2804 10.1959 30.7772 9.19937 30.2058C9.12055 30.1598 9.11422 30.0471 9.1868 29.9931C9.39706 29.836 9.60368 29.674 9.80648 29.5074C9.82427 29.4927 9.8458 29.4833 9.86864 29.4802C9.89148 29.4771 9.91474 29.4805 9.93578 29.4899C16.482 32.4787 23.5691 32.4787 30.0381 29.4899C30.0592 29.4799 30.0827 29.4761 30.1059 29.4789C30.129 29.4817 30.1509 29.491 30.169 29.5057C30.372 29.6733 30.5792 29.8357 30.7902 29.993C30.8627 30.047 30.858 30.1597 30.7792 30.2057C29.7827 30.7882 28.7469 31.2803 27.6574 31.6914C27.6407 31.6978 27.6254 31.7077 27.6127 31.7204C27.6001 31.7331 27.5902 31.7483 27.5838 31.7651C27.5774 31.7819 27.5746 31.7998 27.5756 31.8177C27.5767 31.8356 27.5814 31.8532 27.5897 31.8691C28.1904 33.0325 28.8763 34.1404 29.6314 35.1912C29.663 35.2357 29.7197 35.2547 29.7717 35.2388C33.0401 34.2278 36.3543 32.7024 39.7756 30.1898C39.7903 30.1791 39.8026 30.1653 39.8116 30.1494C39.8205 30.1335 39.826 30.1159 39.8277 30.0978C40.6617 21.4696 38.4307 13.9747 33.9136 7.33051C33.9025 7.309 33.8841 7.29216 33.8617 7.28301ZM13.3667 25.552C11.3959 25.552 9.77187 23.7426 9.77187 21.5204C9.77187 19.2982 11.3643 17.4889 13.3667 17.4889C15.3848 17.4889 16.993 19.3142 16.9615 21.5204C16.9615 23.7426 15.369 25.552 13.3667 25.552ZM26.6579 25.552C24.6871 25.552 23.0631 23.7426 23.0631 21.5204C23.0631 19.2982 24.6555 17.4889 26.6579 17.4889C28.676 17.4889 30.2842 19.3142 30.2527 21.5204C30.2527 23.7426 28.6761 25.552 26.6579 25.552Z" fill="#E0B8FF"/>
</g>
<defs>
<clipPath id="clip0_167_113">
<rect width="40" height="40" fill="white"/>
</clipPath>
</defs>
</svg>
