<svg width="40" height="40" viewBox="0 0 40 40" fill="none" xmlns="http://www.w3.org/2000/svg">
<g clip-path="url(#clip0_167_106)">
<path d="M39.9609 11.7601C39.8672 9.63469 39.5235 8.17363 39.0311 6.90744C38.5232 5.56351 37.7417 4.3603 36.7181 3.36003C35.7178 2.34421 34.5066 1.55483 33.1782 1.05489C31.9048 0.56261 30.4513 0.218793 28.3259 0.125181C26.1846 0.0234421 25.5049 0 20.0742 0C14.6434 0 13.9637 0.0234421 11.8304 0.11721C9.70502 0.210979 8.24388 0.554952 6.97808 1.04692C5.63376 1.55483 4.43056 2.33624 3.43028 3.36003C2.41446 4.36023 1.62548 5.5714 1.12514 6.89979C0.632861 8.17363 0.289122 9.62688 0.195432 11.7521C0.0937717 13.8934 0.0702515 14.5732 0.0702515 20.0039C0.0702515 25.4347 0.0937717 26.1145 0.187462 28.2477C0.28123 30.3731 0.625204 31.8342 1.11757 33.1004C1.62548 34.4443 2.41446 35.6475 3.43028 36.6478C4.43056 37.6636 5.64173 38.453 6.97011 38.9529C8.2438 39.4452 9.69705 39.789 11.8228 39.8826C13.9557 39.9767 14.6358 39.9998 20.0666 39.9998C25.4973 39.9998 26.1771 39.9767 28.3104 39.8826C30.4357 39.7889 31.8969 39.4453 33.1627 38.9529C34.4921 38.4389 35.6995 37.6528 36.7074 36.6449C37.7153 35.6371 38.5015 34.4298 39.0156 33.1004C39.5076 31.8266 39.8516 30.373 39.9453 28.2477C40.0391 26.1145 40.0625 25.4347 40.0625 20.0039C40.0625 14.5732 40.0545 13.8933 39.9609 11.7601ZM36.3588 28.0914C36.2727 30.0449 35.9446 31.0998 35.6711 31.8031C34.9989 33.5456 33.6159 34.9287 31.8733 35.6009C31.1701 35.8743 30.1076 36.2025 28.1617 36.2882C26.0519 36.3823 25.4192 36.4054 20.0821 36.4054C14.7451 36.4054 14.1044 36.3823 12.0022 36.2882C10.0487 36.2025 8.99379 35.8743 8.29053 35.6009C7.42341 35.2803 6.63411 34.7724 5.99336 34.1082C5.32917 33.4597 4.82126 32.6783 4.50073 31.8111C4.22723 31.1078 3.89912 30.0449 3.8134 28.0994C3.71932 25.9896 3.69619 25.3565 3.69619 20.0195C3.69619 14.6824 3.71932 14.0417 3.8134 11.9399C3.89912 9.9864 4.22723 8.93151 4.50073 8.22825C4.82126 7.36073 5.32917 6.5716 6.00133 5.93069C6.64958 5.2665 7.43099 4.75859 8.2985 4.43844C9.00176 4.16495 10.0646 3.83676 12.0102 3.75073C14.1199 3.65696 14.753 3.63352 20.0897 3.63352C25.4347 3.63352 26.0674 3.65696 28.1696 3.75073C30.1231 3.83684 31.178 4.16488 31.8813 4.43837C32.7484 4.75859 33.5378 5.2665 34.1785 5.93069C34.8427 6.57933 35.3506 7.36073 35.6711 8.22825C35.9446 8.93151 36.2727 9.99398 36.3587 11.9399C36.4525 14.0497 36.476 14.6824 36.476 20.0195C36.476 25.3565 36.4526 25.9816 36.3588 28.0914Z" fill="#E0B8FF"/>
<path d="M20.0743 9.72842C14.4014 9.72842 9.79883 14.3307 9.79883 20.0039C9.79883 25.677 14.4014 30.2793 20.0743 30.2793C25.7473 30.2793 30.3497 25.677 30.3497 20.0039C30.3497 14.3307 25.7473 9.72842 20.0743 9.72842ZM20.0743 26.6692C16.394 26.6692 13.4088 23.6844 13.4088 20.0039C13.4088 16.3233 16.394 13.3385 20.0742 13.3385C23.7548 13.3385 26.7396 16.3233 26.7396 20.0039C26.7396 23.6844 23.7547 26.6692 20.0743 26.6692ZM33.1551 9.32209C33.1551 10.6469 32.0809 11.721 30.7559 11.721C29.4312 11.721 28.3571 10.6469 28.3571 9.32209C28.3571 7.99714 29.4312 6.92334 30.756 6.92334C32.0809 6.92334 33.1551 7.99707 33.1551 9.32209Z" fill="#E0B8FF"/>
</g>
<defs>
<clipPath id="clip0_167_106">
<rect width="40" height="40" fill="white"/>
</clipPath>
</defs>
</svg>
