<svg width="208" height="224" viewBox="0 0 208 224" fill="none" xmlns="http://www.w3.org/2000/svg">
<g filter="url(#filter0_d_209_224)">
<path d="M148.515 110.278C158.758 110.278 167.03 100.957 167.03 89.4169V86.9756C167.03 86.0879 166.439 85.2001 165.455 85.2001H163.288C156.788 85.2001 151.076 88.973 147.727 94.7432V87.6414L148.712 86.5317C156 78.5422 156 65.2262 148.712 57.2367L147.136 55.4612C146.545 54.7954 145.561 54.7954 144.97 55.4612L143.394 57.2367C139.848 61.2315 138.076 66.3359 138.076 71.8842C138.076 77.4325 140.045 82.537 143.394 86.5317L144.379 87.6414V94.7432C141.03 88.973 135.318 85.2001 128.818 85.2001H126.652C125.864 85.2001 125.076 85.8659 125.076 86.9756V89.6388C125.076 101.179 133.348 110.5 143.591 110.5H144.182V119.822C140.833 114.051 135.121 110.278 128.621 110.278H126.455C125.667 110.278 124.879 110.944 124.879 112.054V114.051C124.879 125.592 133.152 134.913 143.394 134.913H143.985V144.234C140.636 138.464 134.924 134.691 128.424 134.691H126.258C125.47 134.691 124.682 135.357 124.682 136.466V138.908C124.682 150.448 132.955 159.769 143.197 159.769H143.788V169.312C130.591 163.986 117.394 161.323 104.197 161.101V145.566H104.788C115.03 145.566 123.303 136.245 123.303 124.704V122.263C123.303 121.375 122.712 120.487 121.727 120.487H119.561C113.061 120.487 107.348 124.26 104 130.03V120.709H104.591C114.833 120.709 123.106 111.388 123.106 99.8477V97.4064C123.106 96.5187 122.515 95.631 121.53 95.631H119.364C112.864 95.631 107.152 99.4038 103.803 105.174V95.8529H104.394C114.636 95.8529 122.909 86.5317 122.909 74.9913V72.55C122.909 71.6623 122.318 70.7746 121.333 70.7746H119.167C112.667 70.7746 106.955 74.5474 103.606 80.3176V73.2158L104.591 72.1061C111.879 64.1166 111.879 50.8007 104.591 42.8111L103.015 41.0356C102.424 40.3698 101.439 40.3698 100.848 41.0356L101.439 43.033C94.1515 51.2445 94.1515 64.3385 101.439 72.3281L102.424 73.4377V80.7615C99.0758 74.9913 93.3636 71.2184 86.8636 71.2184H84.697C83.9091 71.2184 83.1212 71.8842 83.1212 72.9939V75.4351C83.1212 86.9756 91.3939 96.2968 101.636 96.2968H102.227V105.618C98.8788 99.8477 93.1667 96.0748 86.6667 96.0748H84.5C83.7121 96.0748 82.9242 96.7406 82.9242 97.8503V100.292C82.9242 111.832 91.197 121.153 101.439 121.153H102.03V130.474C98.6818 124.704 92.9697 120.931 86.4697 120.931H84.303C83.5152 120.931 82.7273 121.597 82.7273 122.707V125.148C82.7273 136.688 91 146.01 101.242 146.01H101.833V161.545C88.6364 161.767 75.4394 164.43 62.2424 169.534V159.991H62.8333C73.0758 159.991 81.3485 150.67 81.3485 139.13V136.688C81.3485 135.801 80.7576 134.913 79.7727 134.913H77.6061C71.1061 134.913 65.3939 138.686 62.0455 144.456V135.135H62.6364C72.8788 135.135 81.1515 125.814 81.1515 114.273V111.832C81.1515 110.944 80.5606 110.057 79.5758 110.057H77.4091C70.9091 110.057 65.197 113.829 61.8485 119.6V110.278H62.4394C72.6818 110.278 80.9545 100.957 80.9545 89.4169V86.9756C80.9545 86.0879 80.3636 85.2001 79.3788 85.2001H77.2121C70.7121 85.2001 65 88.973 61.6515 94.7432V87.6414L62.6364 86.5317C69.9242 78.5422 69.9242 65.2262 62.6364 57.2367V55.4612C62.0455 54.7954 61.0606 54.7954 60.4697 55.4612L58.8939 57.2367C55.3485 61.2315 53.5758 66.3359 53.5758 71.8842C53.5758 77.4325 55.5455 82.537 58.8939 86.5317L59.8788 87.6414V94.7432C56.5303 88.973 50.8182 85.2001 44.3182 85.2001H42.5455C41.7576 85.2001 40.9697 85.8659 40.9697 86.9756V89.6388C40.9697 101.179 49.2424 110.5 59.4848 110.5H60.0758V119.822C56.7273 114.051 51.0152 110.278 44.5152 110.278H42.5455C41.5606 110.057 40.9697 110.722 40.9697 111.832V114.051C40.9697 125.592 49.2424 134.913 59.4848 134.913H60.0758V144.234C56.7273 138.464 51.0152 134.691 44.5152 134.691H42.5455C41.7576 134.691 40.9697 135.357 40.9697 136.466V138.908C40.9697 150.448 49.2424 159.769 59.4848 159.769H60.0758V170.422C53.9697 173.085 47.8636 176.192 41.7576 179.965C40.9697 180.409 40.7727 181.519 41.1667 182.185C41.5606 183.072 42.5455 183.294 43.1364 182.85C83.1212 158.216 123.894 158.216 164.864 182.85H165.652C166.242 182.85 166.636 182.628 167.03 181.963C167.424 181.075 167.227 180.187 166.439 179.743C160.333 175.97 154.227 172.863 148.121 170.422V159.547H148.712C158.955 159.547 167.227 150.226 167.227 138.686V136.245C167.227 135.357 166.636 134.469 165.652 134.469H163.485C156.985 134.469 151.273 138.242 147.924 144.012V134.691H148.515C158.758 134.691 167.03 125.37 167.03 113.829V111.832C167.03 110.944 166.439 110.057 165.455 110.057H163.288C156.788 110.057 151.076 113.829 147.727 119.6V110.278H148.515Z" fill="white"/>
</g>
<defs>
<filter id="filter0_d_209_224" x="0.969696" y="0.536285" width="206.258" height="222.536" filterUnits="userSpaceOnUse" color-interpolation-filters="sRGB">
<feFlood flood-opacity="0" result="BackgroundImageFix"/>
<feColorMatrix in="SourceAlpha" type="matrix" values="0 0 0 0 0 0 0 0 0 0 0 0 0 0 0 0 0 0 127 0" result="hardAlpha"/>
<feOffset/>
<feGaussianBlur stdDeviation="20"/>
<feComposite in2="hardAlpha" operator="out"/>
<feColorMatrix type="matrix" values="0 0 0 0 1 0 0 0 0 0.369417 0 0 0 0 0.329167 0 0 0 1 0"/>
<feBlend mode="normal" in2="BackgroundImageFix" result="effect1_dropShadow_209_224"/>
<feBlend mode="normal" in="SourceGraphic" in2="effect1_dropShadow_209_224" result="shape"/>
</filter>
</defs>
</svg>
