<svg width="130" height="109" viewBox="0 0 130 109" fill="none" xmlns="http://www.w3.org/2000/svg">
<path d="M119.167 16.8007H92.0834V11.3839C92.0834 5.40921 87.2249 0.550461 81.25 0.550461H48.75C42.7753 0.550461 37.9166 5.40896 37.9166 11.3839V16.8005H10.8334C4.8585 16.8007 1.12615e-07 21.6592 1.12615e-07 27.6339V43.8839C1.12615e-07 49.8588 4.8585 54.7173 10.8334 54.7173H54.1668V52.0089C54.1666 51.6531 54.2365 51.3008 54.3725 50.9721C54.5086 50.6434 54.708 50.3448 54.9596 50.0932C55.2111 49.8417 55.5098 49.6422 55.8385 49.5062C56.1672 49.3701 56.5195 49.3002 56.8753 49.3005H73.1253C73.481 49.3002 73.8333 49.3701 74.162 49.5062C74.4907 49.6422 74.7894 49.8417 75.0409 50.0932C75.2925 50.3448 75.492 50.6434 75.628 50.9721C75.764 51.3008 75.8339 51.6531 75.8337 52.0089V54.7173H119.167C125.142 54.7173 130 49.8588 130 43.8839V27.6339C130 21.6592 125.142 16.8007 119.167 16.8007ZM81.25 16.8007H48.75V11.3839H81.25V16.8007ZM128.498 57.6398C128.046 57.4159 127.541 57.3223 127.039 57.3695C126.538 57.4167 126.059 57.6028 125.657 57.9069C123.732 59.3643 121.489 60.1339 119.166 60.1339H75.8334V68.2589C75.8337 68.6146 75.7638 68.9669 75.6277 69.2956C75.4917 69.6243 75.2922 69.923 75.0407 70.1745C74.7891 70.4261 74.4904 70.6256 74.1617 70.7616C73.833 70.8976 73.4807 70.9675 73.125 70.9673H56.875C56.5193 70.9675 56.167 70.8976 55.8383 70.7616C55.5096 70.6256 55.2109 70.4261 54.9593 70.1745C54.7078 69.923 54.5083 69.6243 54.3723 69.2956C54.2362 68.9669 54.1663 68.6146 54.1666 68.2589V60.1339H10.8334C8.51119 60.1339 6.26844 59.3643 4.34281 57.9069C3.94203 57.6004 3.46312 57.4128 2.9608 57.3656C2.45848 57.3184 1.953 57.4134 1.50211 57.6398C1.05082 57.8642 0.671121 58.2102 0.405748 58.6387C0.140375 59.0672 -0.000145218 59.5613 1.12615e-07 60.0653V98.0507C1.12615e-07 104.025 4.8585 108.884 10.8334 108.884H119.167C125.142 108.884 130 104.026 130 98.0507V60.0653C130 59.5612 129.86 59.0672 129.594 58.6386C129.329 58.2101 128.949 57.8642 128.498 57.6398Z" fill="white"/>
</svg>
